# xmcd
#
# Track frame offsets: 
#        150
#        9524
#        21589
#        35608
#        52023
#        66289
#        79747
#        94110
#        110509
#        122844
#
# Disc length: 1817 seconds
#
# Revision: 1
# Processed by: cddbd v1.5.2PL0 Copyright (c) Steve Scherf et al.
# Submitted via: ExactAudioCopyFreeDBPlugin 1.0
#
DISCID=8607170a
DTITLE=Dionne Warwick - 1968 - Valley Of The Dolls
DYEAR=1968
DGENRE=Blues
TTITLE0=As Long As There's An Apple Tree
TTITLE1=Up, Up And Away
TTITLE2=You're My World
TTITLE3=(Theme From) Valley Of The Dolls
TTITLE4=Silent Voices
TTITLE5=Do You Know The Way To San José
TTITLE6=For The Rest Of My Life
TTITLE7=Let Me Be Lonely
TTITLE8=Where Would I Go
TTITLE9=Walking Backwards Down The Road
EXTD=
EXTT0=
EXTT1=
EXTT2=
EXTT3=
EXTT4=
EXTT5=
EXTT6=
EXTT7=
EXTT8=
EXTT9=
PLAYORDER=
